<svg width="30" class="me-2" viewBox="0 0 91 94" fill="none" xmlns="http://www.w3.org/2000/svg"><path d="M16.5874 13.4898L65.2574 7.81319C70.7431 7.17338 75.7088 11.1017 76.3486 16.5874L82.4886 69.2305C83.1284 74.7162 79.2 79.6819 73.7144 80.3217L25.0443 85.9982C19.5586 86.6381 14.5929 82.7097 13.9531 77.2241L7.81317 24.5809C7.17336 19.0952 11.1017 14.1296 16.5874 13.4898Z" stroke="url(#paint0_linear)" stroke-width="12"></path><path d="M30.1914 75.5187L70.4386 70.8032C71.5328 70.675 72.3173 69.6861 72.1931 68.5914L66.5981 19.2546C66.4077 17.5758 64.3505 16.8748 63.1747 18.088L40.2828 41.7081C40.0962 41.9007 39.9501 42.1289 39.8535 42.3791L28.0932 72.8113C27.5504 74.2159 28.6959 75.6939 30.1914 75.5187Z" fill="url(#paint1_linear)"></path><defs><linearGradient id="paint0_linear" x1="40.2273" y1="4.69187" x2="50.0744" y2="89.1196" gradientUnits="userSpaceOnUse"><stop stop-color="#5EBB79"></stop><stop offset="1" stop-color="#00AB82"></stop></linearGradient><linearGradient id="paint1_linear" x1="69.5258" y1="43.0571" x2="23.9489" y2="47.8474" gradientUnits="userSpaceOnUse"><stop stop-color="#5BBB7A"></stop><stop offset="1" stop-color="#06AC82"></stop></linearGradient></defs></svg>